<svg width="200" height="44" viewBox="0 0 200 44" fill="none" xmlns="http://www.w3.org/2000/svg">
<g clip-path="url(#clip0_44_996)">
<g clip-path="url(#clip1_44_996)">
<g clip-path="url(#clip2_44_996)">
<path d="M21.2499 12.197C21.1558 12.7538 21.0371 13.4542 20.9593 13.9237C19.6886 21.4724 16.2121 27.0539 11.2399 30.8235C12.5515 31.5704 14.0882 32.0011 15.7292 32.0011H19.3592C24.1821 32.0011 28.0904 28.2936 28.0904 23.7229V20.2812C28.0904 16.3235 25.1622 13.0177 21.2479 12.199L21.2499 12.197Z" fill="url(#paint0_linear_44_996)"/>
<path d="M20.9594 13.9236C21.0392 13.4561 21.1558 12.7538 21.2499 12.197C20.6402 12.0689 20.0099 12.001 19.3592 12.001H15.7293C10.9084 12.001 6.99811 15.7085 6.99811 20.2792V23.7209C6.99811 26.7357 8.6985 29.3742 11.2399 30.8215C16.2122 27.052 19.6887 21.4685 20.9594 13.9217V13.9236Z" fill="url(#paint1_linear_44_996)"/>
<path d="M20.9594 13.9236C21.0392 13.4561 21.1558 12.7538 21.2499 12.197C20.6402 12.0689 20.0099 12.001 19.3592 12.001H15.7293C10.9084 12.001 6.99811 15.7085 6.99811 20.2792V23.7209C6.99811 26.7357 8.6985 29.3742 11.2399 30.8215C16.2122 27.052 19.6887 21.4685 20.9594 13.9217V13.9236Z" fill="url(#paint2_linear_44_996)"/>
</g>
<g clip-path="url(#clip3_44_996)">
<path d="M32.3486 22.1417C32.3486 18.7234 34.6096 16.5369 37.8754 16.5369C41.4399 16.5369 43.3183 18.6419 43.3183 22.2426V22.5453H34.9513C35.0373 24.4077 36.1259 25.7017 37.9613 25.7017C39.2422 25.7017 40.1589 25.1158 40.5232 24.0837H43.2119C42.6778 26.2896 40.7155 27.6651 37.9408 27.6651C34.5687 27.6651 32.3506 25.5601 32.3506 22.1417H32.3486ZM40.65 20.8865C40.4372 19.2879 39.3691 18.3974 37.8754 18.3974C36.3816 18.3974 35.2501 19.3481 35.0148 20.8865H40.648H40.65Z" fill="#121C36"/>
<path d="M44.2984 24.3068C44.2984 23.1932 44.8325 22.2834 45.7062 21.777C46.4326 21.3327 47.3493 21.1096 49.0354 20.9874L51.7036 20.7856V20.3006C51.7036 19.1269 51.0632 18.4595 49.5265 18.4595C48.268 18.4595 47.6051 18.9659 47.3923 19.835H44.7465C45.0248 17.7514 46.8377 16.5369 49.549 16.5369C52.6224 16.5369 54.2859 17.7514 54.2859 20.2191V24.852C54.2859 25.7619 54.3923 26.9763 54.4783 27.4614H51.896C51.81 27.1587 51.767 26.794 51.767 26.2469V26.1247H51.7036C51.0202 27.0753 49.7413 27.6631 48.268 27.6631C45.8556 27.6631 44.2984 26.3691 44.2984 24.3049V24.3068ZM51.7261 23.3349V22.4036L49.5715 22.586C48.6752 22.6675 48.1841 22.7878 47.779 22.9915C47.2674 23.2553 47.0117 23.6802 47.0117 24.2855C47.0117 25.2167 47.7585 25.7619 48.9535 25.7619C50.6191 25.7619 51.7282 24.7705 51.7282 23.3329L51.7261 23.3349Z" fill="#121C36"/>
<path d="M55.7531 24.1439H58.4213C58.6996 25.3583 59.5733 25.8841 60.8747 25.8841C62.262 25.8841 63.1378 25.3583 63.1378 24.4872C63.1378 23.7597 62.6897 23.4551 61.3228 23.232L59.2091 22.8479C56.9255 22.4424 55.9659 21.5131 55.9659 19.8331C55.9659 17.8096 57.8647 16.535 60.8317 16.535C63.5 16.535 65.2065 17.668 65.5912 19.7923H63.0519C62.7961 18.7408 61.9858 18.2946 60.7683 18.2946C59.4239 18.2946 58.6136 18.7796 58.6136 19.5498C58.6136 20.2172 59.0188 20.5412 60.2363 20.7429L62.3705 21.0863C64.783 21.4918 65.7631 22.4211 65.7631 24.2021C65.7631 26.307 63.7987 27.6612 60.8113 27.6612C57.8238 27.6612 56.2012 26.4467 55.7531 24.14V24.1439Z" fill="#121C36"/>
<path d="M77.2157 16.7387L71.6664 31.1048H68.9552L70.32 27.5429L65.9247 16.7387H68.8488L71.7503 24.2254L74.5024 16.7387H77.2137H77.2157Z" fill="#121C36"/>
<path d="M83.8741 22.101C83.8741 18.5798 86.2006 16.5369 89.5932 16.5369C92.3249 16.5369 94.2238 17.8523 94.7148 20.2191H92.0691C91.7274 19.0862 90.8312 18.5604 89.6362 18.5604C87.8642 18.5604 86.6057 19.7341 86.6057 22.101C86.6057 24.4679 87.8642 25.6222 89.6362 25.6222C90.8741 25.6222 91.7274 24.9956 92.0896 23.8005H94.7353C94.2872 26.2488 92.3453 27.6651 89.5911 27.6651C86.1985 27.6651 83.872 25.6009 83.872 22.101H83.8741Z" fill="#121C36"/>
<path d="M95.7031 22.101C95.7031 18.702 97.9437 16.5369 101.445 16.5369C104.946 16.5369 107.207 18.702 107.207 22.101C107.207 25.5 104.966 27.6651 101.445 27.6651C97.9233 27.6651 95.7031 25.5 95.7031 22.101ZM104.516 22.101C104.516 19.8952 103.385 18.5798 101.443 18.5604C99.5213 18.5798 98.3918 19.8952 98.3918 22.101C98.3918 24.3068 99.5234 25.6222 101.443 25.6222C103.385 25.6028 104.516 24.3068 104.516 22.101Z" fill="#121C36"/>
<path d="M108.787 16.7387H111.475V18.0948H111.539C112.2 17.084 113.395 16.5369 114.761 16.5369C116.319 16.5369 117.387 17.0627 117.984 18.2772H118.048C118.774 17.1849 120.096 16.5369 121.612 16.5369C124.237 16.5369 125.668 18.054 125.668 20.8458V27.4614H122.979V21.2707C122.979 19.4703 122.339 18.6205 120.974 18.6205C120.078 18.6205 119.31 19.1056 118.903 19.9766C118.668 20.4617 118.584 21.0902 118.584 22.0603V27.4633H115.895V21.292C115.895 19.4703 115.255 18.6205 113.91 18.6205C112.994 18.6205 112.224 19.0862 111.797 19.9766C111.584 20.4617 111.477 21.0902 111.477 22.0603V27.4633H108.789V16.7387H108.787Z" fill="#121C36"/>
<path d="M127.794 16.7387H130.482V18.0948H130.546C131.207 17.084 132.402 16.5369 133.769 16.5369C135.326 16.5369 136.394 17.0627 136.991 18.2772H137.055C137.781 17.1849 139.103 16.5369 140.619 16.5369C143.245 16.5369 144.675 18.054 144.675 20.8458V27.4614H141.986V21.2707C141.986 19.4703 141.346 18.6205 139.981 18.6205C139.085 18.6205 138.315 19.1056 137.91 19.9766C137.675 20.4617 137.591 21.0902 137.591 22.0603V27.4633H134.902V21.292C134.902 19.4703 134.262 18.6205 132.917 18.6205C132.001 18.6205 131.231 19.0862 130.804 19.9766C130.591 20.4617 130.485 21.0902 130.485 22.0603V27.4633H127.796V16.7387H127.794Z" fill="#121C36"/>
<path d="M146.248 22.1417C146.248 18.7234 148.512 16.5369 151.775 16.5369C155.34 16.5369 157.216 18.6419 157.216 22.2426V22.5453H148.851C148.937 24.4077 150.026 25.7017 151.861 25.7017C153.142 25.7017 154.059 25.1158 154.423 24.0837H157.112C156.578 26.2896 154.615 27.6651 151.841 27.6651C148.469 27.6651 146.248 25.5601 146.248 22.1417ZM154.55 20.8865C154.337 19.2879 153.269 18.3974 151.775 18.3974C150.282 18.3974 149.15 19.3481 148.915 20.8865H154.548H154.55Z" fill="#121C36"/>
<path d="M158.806 16.7387H161.495V18.3373H161.558C162.219 17.1442 163.244 16.6572 164.46 16.6572H165.057V19.0862H164.417C163.179 19.0862 162.219 19.4509 161.771 20.5432C161.579 20.9874 161.493 21.5345 161.493 22.4851V27.4633H158.804V16.7387H158.806Z" fill="#121C36"/>
<path d="M165.634 22.101C165.634 18.5798 167.961 16.5369 171.353 16.5369C174.085 16.5369 175.984 17.8523 176.475 20.2191H173.829C173.488 19.0862 172.591 18.5604 171.396 18.5604C169.624 18.5604 168.366 19.7341 168.366 22.101C168.366 24.4679 169.624 25.6222 171.396 25.6222C172.634 25.6222 173.488 24.9956 173.85 23.8005H176.495C176.047 26.2488 174.106 27.6651 171.353 27.6651C167.961 27.6651 165.634 25.6009 165.634 22.101Z" fill="#121C36"/>
<path d="M177.478 22.1417C177.478 18.7234 179.741 16.5369 183.004 16.5369C186.569 16.5369 188.447 18.6419 188.447 22.2426V22.5453H180.082C180.168 24.4077 181.257 25.7017 183.092 25.7017C184.373 25.7017 185.29 25.1158 185.654 24.0837H188.343C187.809 26.2896 185.847 27.6651 183.072 27.6651C179.7 27.6651 177.48 25.5601 177.48 22.1417H177.478ZM185.779 20.8865C185.566 19.2879 184.498 18.3974 183.004 18.3974C181.511 18.3974 180.379 19.3481 180.144 20.8865H185.777H185.779Z" fill="#121C36"/>
<path d="M85.509 31.2058C84.2812 30.7325 83.2008 30.0438 82.2964 29.1572C81.392 28.2706 80.6902 27.2132 80.2073 26.0123C79.7141 24.7843 79.4645 23.4359 79.4645 22.0061C79.4645 20.5763 79.7141 19.226 80.2073 17.9999C80.6902 16.799 81.392 15.7398 82.2964 14.8551C83.2008 13.9685 84.2833 13.2798 85.509 12.8064L85.6972 13.2468C84.535 13.6949 83.5119 14.3468 82.6545 15.1868C81.7972 16.0269 81.1321 17.0299 80.6738 18.1706C80.2032 19.3444 79.9638 20.6364 79.9638 22.0081C79.9638 23.3797 80.2032 24.6718 80.6738 25.8455C81.1321 26.9862 81.7992 27.9892 82.6545 28.8293C83.5098 29.6674 84.5329 30.3212 85.6972 30.7693L85.509 31.2097V31.2058Z" fill="#121C36"/>
<path d="M186.954 31.1998L186.765 30.7595C187.928 30.3113 188.951 29.6575 189.806 28.8194C190.663 27.9794 191.328 26.9763 191.787 25.8356C192.257 24.6619 192.497 23.3698 192.497 21.9982C192.497 20.6266 192.257 19.3345 191.787 18.1608C191.328 17.02 190.661 16.017 189.806 15.177C188.951 14.3389 187.928 13.6851 186.765 13.2369L186.954 12.7965C188.181 13.2699 189.262 13.9586 190.166 14.8452C191.071 15.7318 191.772 16.7891 192.255 17.99C192.748 19.2181 192.998 20.5664 192.998 21.9962C192.998 23.4261 192.748 24.7763 192.255 26.0024C191.772 27.2033 191.071 28.2626 190.166 29.1473C189.262 30.0339 188.181 30.7226 186.954 31.196V31.1998Z" fill="#121C36"/>
</g>
</g>
</g>
<defs>
<linearGradient id="paint0_linear_44_996" x1="38.4319" y1="0.935021" x2="5.55308" y2="49.7024" gradientUnits="userSpaceOnUse">
<stop offset="0.18" stop-color="#A9D9FF"/>
<stop offset="0.24" stop-color="#9FCDF3"/>
<stop offset="0.36" stop-color="#87AED4"/>
<stop offset="0.51" stop-color="#5F7BA3"/>
<stop offset="0.69" stop-color="#29365F"/>
<stop offset="0.81" stop-color="#00012B"/>
</linearGradient>
<linearGradient id="paint1_linear_44_996" x1="30.9551" y1="-4.10722" x2="-1.92567" y2="44.6622" gradientUnits="userSpaceOnUse">
<stop offset="0.18" stop-color="#A9D9FF"/>
<stop offset="0.24" stop-color="#9FCDF3"/>
<stop offset="0.36" stop-color="#87AED4"/>
<stop offset="0.51" stop-color="#5F7BA3"/>
<stop offset="0.69" stop-color="#29365F"/>
<stop offset="0.81" stop-color="#00012B"/>
</linearGradient>
<linearGradient id="paint2_linear_44_996" x1="-5.82341" y1="45.8142" x2="28.0296" y2="-6.22902" gradientUnits="userSpaceOnUse">
<stop offset="0.2" stop-color="#A9D9FF"/>
<stop offset="0.25" stop-color="#9FCDF3"/>
<stop offset="0.36" stop-color="#87AED4"/>
<stop offset="0.49" stop-color="#5F7BA3"/>
<stop offset="0.66" stop-color="#29365F"/>
<stop offset="0.77" stop-color="#00012B"/>
</linearGradient>
<clipPath id="clip0_44_996">
<rect width="200" height="44" fill="white"/>
</clipPath>
<clipPath id="clip1_44_996">
<rect width="200" height="44" fill="white"/>
</clipPath>
<clipPath id="clip2_44_996">
<rect width="21.0943" height="20" fill="white" transform="translate(6.99811 12.001)"/>
</clipPath>
<clipPath id="clip3_44_996">
<rect width="160.65" height="18.4092" fill="white" transform="translate(32.3486 12.7965)"/>
</clipPath>
</defs>
</svg>
